<?xml version="1.0" encoding="utf-8"?>
<!-- Generator: Adobe Illustrator 23.0.2, SVG Export Plug-In . SVG Version: 6.00 Build 0)  -->
<svg version="1.1" xmlns="http://www.w3.org/2000/svg" xmlns:xlink="http://www.w3.org/1999/xlink" x="0px" y="0px"
	 viewBox="0 0 113.39 99.21" style="enable-background:new 0 0 113.39 99.21;" xml:space="preserve">
<style type="text/css">
	.st0{fill:#FFFFFF;}
</style>
<g id="粗实线层">
</g>
<g id="细实线">
</g>
<g id="Make2D::可见线::场景轮廓线">
</g>
<g id="Make2D::可见线::曲线">
</g>
<g id="预设值">
	<g>
		<g>
			<path class="st0" d="M82.51,86.16c-0.61,0-1.1-0.49-1.1-1.1s0.49-1.1,1.1-1.1s1.1,0.49,1.1,1.1S83.12,86.16,82.51,86.16z
				 M82.51,84.46c-0.33,0-0.6,0.27-0.6,0.6s0.27,0.6,0.6,0.6s0.6-0.27,0.6-0.6S82.84,84.46,82.51,84.46z"/>
		</g>
		<g>
			<path class="st0" d="M84.4,81.6c-0.61,0-1.1-0.49-1.1-1.1s0.49-1.1,1.1-1.1s1.1,0.49,1.1,1.1S85.01,81.6,84.4,81.6z M84.4,79.9
				c-0.33,0-0.6,0.27-0.6,0.6s0.27,0.6,0.6,0.6s0.6-0.27,0.6-0.6S84.73,79.9,84.4,79.9z"/>
		</g>
		<g>
			<path class="st0" d="M41.88,81.6c-0.61,0-1.1-0.49-1.1-1.1s0.49-1.1,1.1-1.1c0.61,0,1.1,0.49,1.1,1.1S42.49,81.6,41.88,81.6z
				 M41.88,79.9c-0.33,0-0.6,0.27-0.6,0.6s0.27,0.6,0.6,0.6s0.6-0.27,0.6-0.6S42.21,79.9,41.88,79.9z"/>
		</g>
		<g>
			<path class="st0" d="M39.99,86.16c-0.61,0-1.1-0.49-1.1-1.1s0.49-1.1,1.1-1.1c0.61,0,1.1,0.49,1.1,1.1S40.6,86.16,39.99,86.16z
				 M39.99,84.46c-0.33,0-0.6,0.27-0.6,0.6s0.27,0.6,0.6,0.6s0.6-0.27,0.6-0.6S40.33,84.46,39.99,84.46z"/>
		</g>
		<g>
			<path class="st0" d="M35.43,88.05c-0.61,0-1.1-0.49-1.1-1.1s0.49-1.1,1.1-1.1c0.61,0,1.1,0.49,1.1,1.1S36.04,88.05,35.43,88.05z
				 M35.43,86.35c-0.33,0-0.6,0.27-0.6,0.6s0.27,0.6,0.6,0.6s0.6-0.27,0.6-0.6S35.77,86.35,35.43,86.35z"/>
		</g>
		<g>
			<path class="st0" d="M39.99,77.04c-0.61,0-1.1-0.49-1.1-1.1s0.49-1.1,1.1-1.1c0.61,0,1.1,0.49,1.1,1.1S40.6,77.04,39.99,77.04z
				 M39.99,75.34c-0.33,0-0.6,0.27-0.6,0.6s0.27,0.6,0.6,0.6s0.6-0.27,0.6-0.6S40.33,75.34,39.99,75.34z"/>
		</g>
		<g>
			<path class="st0" d="M35.43,85.15c-2.56,0-4.64-2.08-4.64-4.64s2.08-4.64,4.64-4.64s4.64,2.08,4.64,4.64S37.99,85.15,35.43,85.15
				z M35.43,76.36c-2.28,0-4.14,1.86-4.14,4.14s1.86,4.14,4.14,4.14c2.29,0,4.14-1.86,4.14-4.14S37.72,76.36,35.43,76.36z"/>
		</g>
		<g>
			<path class="st0" d="M77.95,88.05c-0.61,0-1.1-0.49-1.1-1.1s0.49-1.1,1.1-1.1s1.1,0.49,1.1,1.1S78.56,88.05,77.95,88.05z
				 M77.95,86.35c-0.33,0-0.6,0.27-0.6,0.6s0.27,0.6,0.6,0.6s0.6-0.27,0.6-0.6S78.29,86.35,77.95,86.35z"/>
		</g>
		<g>
			<path class="st0" d="M30.87,86.16c-0.61,0-1.1-0.49-1.1-1.1s0.49-1.1,1.1-1.1c0.61,0,1.1,0.49,1.1,1.1S31.48,86.16,30.87,86.16z
				 M30.87,84.46c-0.33,0-0.6,0.27-0.6,0.6s0.27,0.6,0.6,0.6s0.6-0.27,0.6-0.6S31.21,84.46,30.87,84.46z"/>
		</g>
		<g>
			<path class="st0" d="M28.99,81.6c-0.61,0-1.1-0.49-1.1-1.1s0.49-1.1,1.1-1.1c0.61,0,1.1,0.49,1.1,1.1S29.59,81.6,28.99,81.6z
				 M28.99,79.9c-0.33,0-0.6,0.27-0.6,0.6s0.27,0.6,0.6,0.6s0.6-0.27,0.6-0.6S29.32,79.9,28.99,79.9z"/>
		</g>
		<g>
			<path class="st0" d="M30.87,77.04c-0.61,0-1.1-0.49-1.1-1.1s0.49-1.1,1.1-1.1c0.61,0,1.1,0.49,1.1,1.1S31.48,77.04,30.87,77.04z
				 M30.87,75.34c-0.33,0-0.6,0.27-0.6,0.6s0.27,0.6,0.6,0.6s0.6-0.27,0.6-0.6S31.21,75.34,30.87,75.34z"/>
		</g>
		<g>
			<path class="st0" d="M82.51,77.04c-0.61,0-1.1-0.49-1.1-1.1s0.49-1.1,1.1-1.1s1.1,0.49,1.1,1.1S83.12,77.04,82.51,77.04z
				 M82.51,75.34c-0.33,0-0.6,0.27-0.6,0.6s0.27,0.6,0.6,0.6s0.6-0.27,0.6-0.6S82.84,75.34,82.51,75.34z"/>
		</g>
		<g>
			<path class="st0" d="M77.95,75.16c-0.61,0-1.1-0.49-1.1-1.1s0.49-1.1,1.1-1.1s1.1,0.49,1.1,1.1S78.56,75.16,77.95,75.16z
				 M77.95,73.45c-0.33,0-0.6,0.27-0.6,0.6c0,0.33,0.27,0.6,0.6,0.6s0.6-0.27,0.6-0.6C78.55,73.72,78.29,73.45,77.95,73.45z"/>
		</g>
		<g>
			<path class="st0" d="M73.39,86.16c-0.61,0-1.1-0.49-1.1-1.1s0.49-1.1,1.1-1.1s1.1,0.49,1.1,1.1S74,86.16,73.39,86.16z
				 M73.39,84.46c-0.33,0-0.6,0.27-0.6,0.6s0.27,0.6,0.6,0.6s0.6-0.27,0.6-0.6S73.72,84.46,73.39,84.46z"/>
		</g>
		<g>
			<path class="st0" d="M71.51,81.6c-0.61,0-1.1-0.49-1.1-1.1s0.49-1.1,1.1-1.1s1.1,0.49,1.1,1.1S72.11,81.6,71.51,81.6z
				 M71.51,79.9c-0.33,0-0.6,0.27-0.6,0.6s0.27,0.6,0.6,0.6s0.6-0.27,0.6-0.6S71.84,79.9,71.51,79.9z"/>
		</g>
		<g>
			<path class="st0" d="M73.39,77.04c-0.61,0-1.1-0.49-1.1-1.1s0.49-1.1,1.1-1.1s1.1,0.49,1.1,1.1S74,77.04,73.39,77.04z
				 M73.39,75.34c-0.33,0-0.6,0.27-0.6,0.6s0.27,0.6,0.6,0.6s0.6-0.27,0.6-0.6S73.72,75.34,73.39,75.34z"/>
		</g>
		<g>
			<path class="st0" d="M35.43,75.16c-0.61,0-1.1-0.49-1.1-1.1s0.49-1.1,1.1-1.1c0.61,0,1.1,0.49,1.1,1.1S36.04,75.16,35.43,75.16z
				 M35.43,73.45c-0.33,0-0.6,0.27-0.6,0.6c0,0.33,0.27,0.6,0.6,0.6s0.6-0.27,0.6-0.6C36.03,73.72,35.77,73.45,35.43,73.45z"/>
		</g>
		<g>
			<path class="st0" d="M77.95,85.15c-2.56,0-4.64-2.08-4.64-4.64s2.08-4.64,4.64-4.64s4.64,2.08,4.64,4.64S80.51,85.15,77.95,85.15
				z M77.95,76.36c-2.29,0-4.14,1.86-4.14,4.14s1.86,4.14,4.14,4.14s4.14-1.86,4.14-4.14S80.24,76.36,77.95,76.36z"/>
		</g>
		<g>
			<path class="st0" d="M35.43,88.81c-4.58,0-8.31-3.73-8.31-8.31s3.73-8.31,8.31-8.31c4.58,0,8.31,3.73,8.31,8.31
				S40.01,88.81,35.43,88.81z M35.43,72.45c-4.44,0-8.06,3.61-8.06,8.06s3.61,8.06,8.06,8.06c4.44,0,8.06-3.61,8.06-8.06
				S39.88,72.45,35.43,72.45z"/>
		</g>
		<g>
			<path class="st0" d="M77.95,88.81c-4.58,0-8.31-3.73-8.31-8.31s3.73-8.31,8.31-8.31s8.31,3.73,8.31,8.31S82.53,88.81,77.95,88.81
				z M77.95,72.45c-4.44,0-8.06,3.61-8.06,8.06s3.61,8.06,8.06,8.06s8.06-3.61,8.06-8.06S82.39,72.45,77.95,72.45z"/>
		</g>
		<g>
			<path class="st0" d="M77.95,90.67h-8.58c-0.14,0-0.25-0.11-0.25-0.25s0.11-0.25,0.25-0.25h8.58c5.33,0,9.67-4.34,9.67-9.67v-7.94
				c0-3.26,2.66-5.92,5.92-5.92h14.17c0.64,0,1.17-0.52,1.17-1.17V9.64c0-2.21-1.79-4-4-4H8.5c-2.21,0-4,1.8-4,4v55.84
				c0,0.64,0.52,1.17,1.17,1.17h14.17c3.26,0,5.92,2.66,5.92,5.92v7.94c0,5.33,4.34,9.67,9.67,9.67h8.59c0.14,0,0.25,0.11,0.25,0.25
				s-0.11,0.25-0.25,0.25h-8.59c-5.61,0-10.17-4.56-10.17-10.17v-7.94c0-2.99-2.43-5.42-5.42-5.42H5.67C4.75,67.15,4,66.4,4,65.48
				V9.64c0-2.48,2.02-4.5,4.5-4.5h96.38c2.48,0,4.5,2.02,4.5,4.5v55.84c0,0.92-0.75,1.67-1.67,1.67H93.54
				c-2.99,0-5.42,2.43-5.42,5.42v7.94C88.12,86.11,83.56,90.67,77.95,90.67z"/>
		</g>
		<g>
			<path class="st0" d="M50.6,73.38c-0.14,0-0.25-0.11-0.25-0.25v-1.45h-1.2v1.45c0,0.14-0.11,0.25-0.25,0.25s-0.25-0.11-0.25-0.25
				v-1.7c0-0.14,0.11-0.25,0.25-0.25h1.7c0.14,0,0.25,0.11,0.25,0.25v1.7C50.85,73.27,50.74,73.38,50.6,73.38z"/>
		</g>
		<g>
			<path class="st0" d="M53.57,73.38c-0.14,0-0.25-0.11-0.25-0.25v-1.45h-0.35v1.45c0,0.14-0.11,0.25-0.25,0.25
				s-0.25-0.11-0.25-0.25v-1.7c0-0.14,0.11-0.25,0.25-0.25h0.85c0.14,0,0.25,0.11,0.25,0.25v1.7
				C53.82,73.27,53.71,73.38,53.57,73.38z"/>
		</g>
		<g>
			<path class="st0" d="M56.41,73.38c-0.14,0-0.25-0.11-0.25-0.25v-1.45h-0.35v1.45c0,0.14-0.11,0.25-0.25,0.25
				s-0.25-0.11-0.25-0.25v-1.7c0-0.14,0.11-0.25,0.25-0.25h0.85c0.14,0,0.25,0.11,0.25,0.25v1.7
				C56.66,73.27,56.55,73.38,56.41,73.38z"/>
		</g>
		<g>
			<path class="st0" d="M54.99,73.38c-0.14,0-0.25-0.11-0.25-0.25v-1.45h-0.35v1.45c0,0.14-0.11,0.25-0.25,0.25
				s-0.25-0.11-0.25-0.25v-1.7c0-0.14,0.11-0.25,0.25-0.25h0.85c0.14,0,0.25,0.11,0.25,0.25v1.7
				C55.24,73.27,55.13,73.38,54.99,73.38z"/>
		</g>
		<g>
			<path class="st0" d="M56.98,73.38c-0.14,0-0.25-0.11-0.25-0.25v-1.7c0-0.14,0.11-0.25,0.25-0.25h0.85c0.14,0,0.25,0.11,0.25,0.25
				v1.7c0,0.14-0.11,0.25-0.25,0.25s-0.25-0.11-0.25-0.25v-1.45h-0.35v1.45C57.23,73.27,57.11,73.38,56.98,73.38z"/>
		</g>
		<g>
			<path class="st0" d="M59.81,73.38c-0.14,0-0.25-0.11-0.25-0.25v-1.7c0-0.14,0.11-0.25,0.25-0.25h0.85c0.14,0,0.25,0.11,0.25,0.25
				v1.7c0,0.14-0.11,0.25-0.25,0.25s-0.25-0.11-0.25-0.25v-1.45h-0.35v1.45C60.06,73.27,59.95,73.38,59.81,73.38z"/>
		</g>
		<g>
			<path class="st0" d="M62.51,79.05h-2.83c-0.07,0-0.13-0.03-0.18-0.07l-0.28-0.28c-0.07-0.07-0.09-0.18-0.05-0.27
				c0.04-0.09,0.13-0.15,0.23-0.15h3.4c0.1,0,0.19,0.06,0.23,0.15c0.04,0.09,0.02,0.2-0.05,0.27l-0.28,0.28
				C62.63,79.03,62.57,79.05,62.51,79.05z"/>
		</g>
		<g>
			<path class="st0" d="M62.08,73.38c-0.14,0-0.25-0.11-0.25-0.25v-1.45h-0.35v1.44c0,0.14-0.11,0.25-0.25,0.25
				s-0.25-0.11-0.25-0.25v-1.69c0-0.14,0.11-0.25,0.25-0.25h0.85c0.14,0,0.25,0.11,0.25,0.25v1.7
				C62.33,73.27,62.22,73.38,62.08,73.38z"/>
		</g>
		<g>
			<path class="st0" d="M64.49,73.38c-0.14,0-0.25-0.11-0.25-0.25v-1.45h-1.2v1.45c0,0.14-0.11,0.25-0.25,0.25s-0.25-0.11-0.25-0.25
				v-1.7c0-0.14,0.11-0.25,0.25-0.25h1.7c0.14,0,0.25,0.11,0.25,0.25v1.7C64.74,73.27,64.63,73.38,64.49,73.38z"/>
		</g>
		<g>
			<path class="st0" d="M59.24,73.38c-0.14,0-0.25-0.11-0.25-0.25v-1.45h-0.35v1.45c0,0.14-0.11,0.25-0.25,0.25
				s-0.25-0.11-0.25-0.25v-1.7c0-0.14,0.11-0.25,0.25-0.25h0.85c0.14,0,0.25,0.11,0.25,0.25v1.7
				C59.49,73.27,59.38,73.38,59.24,73.38z"/>
		</g>
		<g>
			<path class="st0" d="M62.79,80.75c-0.07,0-0.13-0.03-0.18-0.07l-0.28-0.28c-0.1-0.1-0.1-0.26,0-0.35
				c0.06-0.06,0.13-0.08,0.21-0.07v-1.45c0-0.14,0.11-0.25,0.25-0.25s0.25,0.11,0.25,0.25v1.98c0,0.1-0.06,0.19-0.15,0.23
				C62.85,80.75,62.82,80.75,62.79,80.75z"/>
		</g>
		<g>
			<path class="st0" d="M54,80.75h-3.4c-0.14,0-0.25-0.11-0.25-0.25v-1.98c0-0.1,0.06-0.19,0.15-0.23c0.09-0.04,0.2-0.02,0.27,0.05
				l0.28,0.28c0.05,0.05,0.07,0.11,0.07,0.18v1.17h2.33V78.8c0-0.07,0.03-0.13,0.07-0.18l0.28-0.28c0.07-0.07,0.18-0.09,0.27-0.05
				c0.09,0.04,0.15,0.13,0.15,0.23v1.98C54.25,80.64,54.14,80.75,54,80.75z"/>
		</g>
		<g>
			<path class="st0" d="M62.51,80.47h-2.83c-0.14,0-0.25-0.11-0.25-0.25V78.8c0-0.14,0.11-0.25,0.25-0.25s0.25,0.11,0.25,0.25v1.17
				h2.33V78.8c0-0.14,0.11-0.25,0.25-0.25c0.14,0,0.25,0.11,0.25,0.25v1.42C62.76,80.36,62.64,80.47,62.51,80.47z"/>
		</g>
		<g>
			<path class="st0" d="M66.76,73.38c-0.14,0-0.25-0.11-0.25-0.25v-1.45h-1.2v1.44c0,0.14-0.11,0.25-0.25,0.25s-0.25-0.11-0.25-0.25
				v-1.69c0-0.14,0.11-0.25,0.25-0.25h1.7c0.14,0,0.25,0.11,0.25,0.25v1.7C67.01,73.27,66.89,73.38,66.76,73.38z"/>
		</g>
		<g>
			<path class="st0" d="M52.16,73.38c-0.14,0-0.25-0.11-0.25-0.25v-1.45h-0.35v1.45c0,0.14-0.11,0.25-0.25,0.25
				s-0.25-0.11-0.25-0.25v-1.7c0-0.14,0.11-0.25,0.25-0.25h0.85c0.14,0,0.25,0.11,0.25,0.25v1.7C52.41,73.27,52.3,73.38,52.16,73.38
				z"/>
		</g>
		<g>
			<path class="st0" d="M62.79,80.75h-3.4c-0.14,0-0.25-0.11-0.25-0.25v-1.98c0-0.14,0.11-0.25,0.25-0.25s0.25,0.11,0.25,0.25v1.73
				h3.15c0.14,0,0.25,0.11,0.25,0.25S62.93,80.75,62.79,80.75z"/>
		</g>
		<g>
			<path class="st0" d="M48.33,73.38c-0.14,0-0.25-0.11-0.25-0.25v-1.45h-1.2v1.45c0,0.14-0.11,0.25-0.25,0.25s-0.25-0.11-0.25-0.25
				v-1.7c0-0.14,0.11-0.25,0.25-0.25h1.7c0.14,0,0.25,0.11,0.25,0.25v1.7C48.58,73.27,48.47,73.38,48.33,73.38z"/>
		</g>
		<g>
			<path class="st0" d="M50.6,80.75c-0.06,0-0.13-0.02-0.18-0.07c-0.1-0.1-0.1-0.26,0-0.35l0.28-0.28c0.1-0.1,0.26-0.1,0.35,0
				s0.1,0.26,0,0.35l-0.28,0.28C50.72,80.73,50.66,80.75,50.6,80.75z"/>
		</g>
		<g>
			<path class="st0" d="M54,80.75c-0.06,0-0.13-0.02-0.18-0.07l-0.28-0.28c-0.1-0.1-0.1-0.26,0-0.35s0.26-0.1,0.35,0l0.28,0.28
				c0.1,0.1,0.1,0.26,0,0.35C54.13,80.73,54.06,80.75,54,80.75z"/>
		</g>
		<g>
			<path class="st0" d="M53.71,79.05h-2.83c-0.14,0-0.25-0.11-0.25-0.25s0.11-0.25,0.25-0.25h2.83c0.14,0,0.25,0.11,0.25,0.25
				S53.85,79.05,53.71,79.05z"/>
		</g>
		<g>
			<path class="st0" d="M59.39,80.75c-0.06,0-0.13-0.02-0.18-0.07c-0.1-0.1-0.1-0.26,0-0.35l0.28-0.28c0.1-0.1,0.26-0.1,0.35,0
				s0.1,0.26,0,0.35l-0.28,0.28C59.51,80.73,59.45,80.75,59.39,80.75z"/>
		</g>
		<g>
			<path class="st0" d="M54,78.77h-3.4c-0.14,0-0.25-0.11-0.25-0.25s0.11-0.25,0.25-0.25H54c0.14,0,0.25,0.11,0.25,0.25
				S54.14,78.77,54,78.77z"/>
		</g>
		<g>
			<path class="st0" d="M68.89,26.46c0.71,0.72,1.11,1.7,1.11,2.72c0,1.02-0.4,1.99-1.11,2.72c-1.48,1.97-3.95,1.97-5.43,0.49
				c-1.98-1.48-1.98-3.95,0-5.92C64.97,24.98,67.38,24.98,68.89,26.46z"/>
		</g>
		<g>
			<path class="st0" d="M37.3,57.56c-1.98-1.97-1.98-4.44,0-6.42c0.22-0.22,0.43-0.43,0.65-0.65c-5.99-9.21-4.71-21.35,3.06-29.11
				c5.07,5.13,10.15,10.25,15.22,15.38c1.81-1.83,3.63-3.66,5.44-5.49c0.79,0.8,1.58,1.59,2.37,2.39c-1.81,1.83-3.63,3.66-5.44,5.5
				c4.98,5.04,9.97,10.08,14.95,15.11c-7.87,7.95-20.05,9.02-28.77,3.2c-0.19,0.19-0.38,0.38-0.58,0.58c-1.98,1.98-4.45,1.98-6.42,0
				C37.62,57.89,37.46,57.72,37.3,57.56z"/>
		</g>
		<g>
			<path class="st0" d="M65.13,13.95c9.09,0,16.27,7.25,16.27,16.44c-0.96,0-1.91,0-2.87,0c0-0.16,0-0.32,0-0.49
				c0-0.03,0-0.06,0-0.09c0-7.41-5.99-13.42-13.4-13.45C65.13,15.57,65.13,14.76,65.13,13.95C65.13,13.95,65.13,13.95,65.13,13.95z"
				/>
		</g>
		<g>
			<path class="st0" d="M64.65,19.27c5.74,0,10.53,4.84,10.53,10.64c-0.8,0-1.6,0-2.39,0c0-4.35-3.83-8.22-8.14-8.22
				C64.65,20.89,64.65,20.08,64.65,19.27z"/>
		</g>
		<g>
			<path class="st0" d="M69.36,94.08H44.02c-0.14,0-0.25-0.11-0.25-0.25V73.13c0-0.14,0.11-0.25,0.25-0.25h25.34
				c0.14,0,0.25,0.11,0.25,0.25v20.69C69.61,93.97,69.5,94.08,69.36,94.08z M44.27,93.58h24.84V73.38H44.27V93.58z"/>
		</g>
	</g>
</g>
</svg>
